<svg width="128" height="128" viewBox="0 0 128 128" fill="none" xmlns="http://www.w3.org/2000/svg">
<g clip-path="url(#clip0_2635_42)">
<rect width="128" height="128" rx="22" fill="#F2F1EC"/>
<path d="M110.325 44.0325C110.325 39.6704 109.399 35.9809 107.548 32.9641C105.697 29.9065 102.639 27.6031 98.3733 26.054C94.1078 24.464 88.3333 23.6691 81.0498 23.6691H68.7362V20H91.794C99.2385 20 105.234 21.0396 109.782 23.1187C114.369 25.1571 117.709 27.9293 119.801 31.4353C121.934 34.9413 123.001 38.8754 123.001 43.2375C123.001 47.7219 121.914 51.8599 119.741 55.6512C117.568 59.4019 114.188 62.3983 109.6 64.6405C105.013 66.8827 99.0775 68.0038 91.794 68.0038H68.7362V64.3347H88.8967C92.961 64.3347 96.6027 63.5805 99.822 62.0721C103.081 60.523 105.637 58.24 107.488 55.2232C109.379 52.2064 110.325 48.4761 110.325 44.0325ZM76.7038 20V103.105L87.5084 105.673V107.446H53.4648V105.673L64.2695 103.105V24.2806L53.4648 21.7734V20H76.7038Z" fill="black"/>
<path d="M53.633 60.2819C47.5412 60.2819 42.772 58.6795 39.3254 55.4748C35.8387 52.2296 34.0953 47.4834 34.0953 41.2362C34.0953 37.5042 34.8568 34.2995 36.3797 31.6221C37.9026 28.9042 40.3874 26.8151 43.8341 25.3547C47.2807 23.8943 51.8896 23.1641 57.6608 23.1641H73.5314V20H53.5128C45.4973 20 39.1651 20.9127 34.5161 22.7382C29.8271 24.5637 26.4806 27.0585 24.4767 30.2226C22.4729 33.3867 21.4709 37.0174 21.4709 41.1145C21.4709 44.6843 22.4528 48.0107 24.4166 51.0937C26.3804 54.1767 29.3061 56.7121 33.1936 58.6998C37.0811 60.6875 41.9104 61.8437 47.6815 62.1682V61.9856C43.9944 62.0262 40.9886 62.4522 38.6641 63.2635C36.3396 64.0748 34.3959 65.3729 32.8329 67.1578C31.2298 68.9021 29.7068 71.2752 28.264 74.2771L18.8258 93.7487C17.1426 97.1968 15.6998 99.7119 14.4975 101.294C13.2551 102.876 11.9325 103.87 10.5298 104.276C9.08704 104.681 7.24349 104.884 4.99916 104.884V107.014C9.1672 107.338 12.6339 107.48 15.3992 107.44C18.1245 107.399 20.3889 107.034 22.1923 106.344C23.9958 105.655 25.5388 104.539 26.8213 102.998C28.1037 101.456 29.3862 99.3873 30.6687 96.7911L41.3693 74.6422C42.8121 71.5997 44.1146 69.2875 45.2769 67.7054C46.4391 66.0828 47.6414 64.9672 48.8838 64.3587C50.1262 63.7503 51.6492 63.446 53.4527 63.446H73.5314V60.2819H53.633ZM64.0331 20V102.693L53.2723 105.249V107.014H87.1777V105.249L76.417 102.693V24.2594L87.1777 21.7646V20H64.0331Z" fill="black"/>
</g>
<defs>
<clipPath id="clip0_2635_42">
<rect width="128" height="128" fill="white"/>
</clipPath>
</defs>
</svg>
